
<svg width="726.5624755859375px" height="135.21754150390626px" xmlns="http://www.w3.org/2000/svg" viewBox="-113.28123779296874 7.391229248046869 726.5624755859375 135.21754150390626" style="background:#fff" preserveAspectRatio="xMidYMid"><defs><filter id="editing-marble" x="-100%" y="-100%" width="300%" height="300%"><feFlood flood-color="#b44607" result="flood-1"></feFlood><feComposite operator="in" in="flood-1" in2="SourceAlpha" result="flood-2"></feComposite><feTurbulence baseFrequency="0.07" type="fractalNoise" numOctaves="1" seed="2" result="bs-1"></feTurbulence><feGaussianBlur stdDeviation="1" in="flood-2" result="bs-2"></feGaussianBlur><feDisplacementMap scale="110" in="bs-2" in2="bs-1" result="bs-3"></feDisplacementMap><feComposite operator="in" in="bs-3" in2="SourceAlpha" result="texture"></feComposite><feMerge><feMergeNode in="SourceGraphic"></feMergeNode><feMergeNode in="texture"></feMergeNode></feMerge></filter></defs><g filter="url(#editing-marble)"><g transform="translate(-3.3131394386291504, 109.68999862670898)"><path d="M9.47-13.81L9.03-15.03L9.03-15.03Q9.06-15.06 9.50-15.28L9.50-15.28L9.50-15.28Q9.94-15.50 10.72-15.83L10.72-15.83L10.72-15.83Q11.50-16.16 12.63-16.53L12.63-16.53L12.63-16.53Q13.75-16.91 15.22-17.28L15.22-17.28L15.22-17.28Q15.06-19.63 15.02-21.98L15.02-21.98L15.02-21.98Q14.97-24.34 14.97-26.50L14.97-26.50L14.97-26.50Q14.97-30.97 15.58-34.36L15.58-34.36L15.58-34.36Q16.19-37.75 17.16-40.25L17.16-40.25L17.03-40.25L17.03-40.25Q13.59-39.78 10.88-39.28L10.88-39.28L10.88-39.28Q8.16-38.78 6.03-37.98L6.03-37.98L6.03-37.98Q3.91-37.19 2.33-36L2.33-36L2.33-36Q0.75-34.81-0.38-32.97L-0.38-32.97L-1.53-33.41L-1.53-33.41Q-0.16-35.84 1.88-37.23L1.88-37.23L1.88-37.23Q3.91-38.63 6.34-39.44L6.34-39.44L6.34-39.44Q8.78-40.25 11.53-40.66L11.53-40.66L11.53-40.66Q14.28-41.06 17.09-41.53L17.09-41.53L17.09-41.53Q17.25-41.53 17.41-41.56L17.41-41.56L17.41-41.56Q17.56-41.59 17.72-41.66L17.72-41.66L17.72-41.66Q18.84-44 20.14-45.55L20.14-45.55L20.14-45.55Q21.44-47.09 22.67-48.02L22.67-48.02L22.67-48.02Q23.91-48.94 24.92-49.30L24.92-49.30L24.92-49.30Q25.94-49.66 26.50-49.66L26.50-49.66L26.50-49.66Q27.69-49.66 28.31-48.98L28.31-48.98L28.31-48.98Q28.94-48.31 28.94-47.56L28.94-47.56L28.94-47.56Q28.94-46.16 28.08-45.06L28.08-45.06L28.08-45.06Q27.22-43.97 25.91-43.16L25.91-43.16L25.91-43.16Q24.59-42.34 23.05-41.77L23.05-41.77L23.05-41.77Q21.50-41.19 20.09-40.84L20.09-40.84L20.09-40.84Q19.31-38.72 18.88-36.09L18.88-36.09L18.88-36.09Q18.44-33.47 18.44-30.47L18.44-30.47L18.44-30.47Q18.44-27.63 18.63-24.48L18.63-24.48L18.63-24.48Q18.81-21.34 19.06-18.06L19.06-18.06L19.06-18.06Q20.34-18.22 21.77-18.33L21.77-18.33L21.77-18.33Q23.19-18.44 24.78-18.44L24.78-18.44L24.78-18.44Q25.59-18.44 26.92-18.39L26.92-18.39L26.92-18.39Q28.25-18.34 29.66-18.28L29.66-18.28L29.66-18.28Q31.06-18.22 32.31-18.17L32.31-18.17L32.31-18.17Q33.56-18.13 34.25-18.13L34.25-18.13L34.25-18.13Q35.41-18.13 36.45-18.16L36.45-18.16L36.45-18.16Q37.50-18.19 38.41-18.25L38.41-18.25L38.41-18.25Q38.47-24.72 40.13-30.67L40.13-30.67L40.13-30.67Q41.78-36.63 44.69-42.44L44.69-42.44L45.69-41.97L45.69-41.97Q45.66-41.94 45.38-41.03L45.38-41.03L45.38-41.03Q45.09-40.13 44.67-38.55L44.67-38.55L44.67-38.55Q44.25-36.97 43.75-34.80L43.75-34.80L43.75-34.80Q43.25-32.63 42.83-30.06L42.83-30.06L42.83-30.06Q42.41-27.50 42.13-24.63L42.13-24.63L42.13-24.63Q41.84-21.75 41.84-18.75L41.84-18.75L41.84-18.50L41.84-18.50Q43.22-18.66 44.19-18.84L44.19-18.84L44.19-18.84Q45.16-19.03 45.77-19.20L45.77-19.20L45.77-19.20Q46.38-19.38 46.66-19.48L46.66-19.48L46.66-19.48Q46.94-19.59 46.97-19.59L46.97-19.59L47.38-18.44L47.38-18.44Q47.22-18.34 45.89-17.95L45.89-17.95L45.89-17.95Q44.56-17.56 41.84-17.22L41.84-17.22L41.84-17.22Q41.88-15.78 41.97-14.03L41.97-14.03L41.97-14.03Q42.06-12.28 42.20-10.44L42.20-10.44L42.20-10.44Q42.34-8.59 42.56-6.73L42.56-6.73L42.56-6.73Q42.78-4.88 43.06-3.20L43.06-3.20L43.06-3.20Q43.34-1.53 43.72-0.17L43.72-0.17L43.72-0.17Q44.09 1.19 44.53 2.06L44.53 2.06L43.59 2.56L43.59 2.56Q43.59 2.59 43.23 2L43.23 2L43.23 2Q42.88 1.41 42.31 0.25L42.31 0.25L42.31 0.25Q41.75-0.91 41.09-2.59L41.09-2.59L41.09-2.59Q40.44-4.28 39.86-6.45L39.86-6.45L39.86-6.45Q39.28-8.63 38.88-11.25L38.88-11.25L38.88-11.25Q38.47-13.88 38.41-16.91L38.41-16.91L38.41-16.91Q37.34-16.81 36.20-16.80L36.20-16.80L36.20-16.80Q35.06-16.78 33.78-16.78L33.78-16.78L33.78-16.78Q33.03-16.78 32.03-16.83L32.03-16.83L32.03-16.83Q31.03-16.88 29.95-16.94L29.95-16.94L29.95-16.94Q28.88-17 27.80-17.05L27.80-17.05L27.80-17.05Q26.72-17.09 25.84-17.09L25.84-17.09L25.84-17.09Q23.97-17.09 22.31-16.97L22.31-16.97L22.31-16.97Q20.66-16.84 19.19-16.63L19.19-16.63L19.19-16.63Q19.41-13.94 19.53-11.33L19.53-11.33L19.53-11.33Q19.66-8.72 19.66-6.22L19.66-6.22L19.66-6.22Q19.66-3.25 19.38-0.53L19.38-0.53L19.38-0.53Q19.09 2.19 18.42 4.56L18.42 4.56L18.42 4.56Q17.75 6.94 16.63 8.88L16.63 8.88L16.63 8.88Q15.50 10.81 13.81 12.20L13.81 12.20L13.81 12.20Q12.13 13.59 9.81 14.34L9.81 14.34L9.81 14.34Q7.50 15.09 4.47 15.09L4.47 15.09L4.47 15.09Q1.16 15.09-1.86 13.81L-1.86 13.81L-1.86 13.81Q-4.88 12.53-7.03 10.13L-7.03 10.13L-6.16 9.28L-6.16 9.28Q-4.13 11.50-1.38 12.69L-1.38 12.69L-1.38 12.69Q1.38 13.88 4.41 13.88L4.41 13.88L4.41 13.88Q6.81 13.88 8.63 13.20L8.63 13.20L8.63 13.20Q10.44 12.53 11.73 11.36L11.73 11.36L11.73 11.36Q13.03 10.19 13.88 8.59L13.88 8.59L13.88 8.59Q14.72 7 15.20 5.11L15.20 5.11L15.20 5.11Q15.69 3.22 15.88 1.14L15.88 1.14L15.88 1.14Q16.06-0.94 16.06-3.06L16.06-3.06L16.06-3.06Q16.06-3.75 15.98-5.03L15.98-5.03L15.98-5.03Q15.91-6.31 15.80-8L15.80-8L15.80-8Q15.69-9.69 15.55-11.70L15.55-11.70L15.55-11.70Q15.41-13.72 15.28-15.88L15.28-15.88L15.28-15.88Q13.84-15.53 12.75-15.17L12.75-15.17L12.75-15.17Q11.66-14.81 10.94-14.50L10.94-14.50L10.94-14.50Q10.09-14.16 9.47-13.81L9.47-13.81ZM26.69-48.44L26.69-48.44L26.69-48.44Q25.13-48.44 23.53-46.81L23.53-46.81L23.53-46.81Q21.94-45.19 20.69-42.25L20.69-42.25L20.69-42.25Q22.03-42.63 23.31-43.13L23.31-43.13L23.31-43.13Q24.59-43.63 25.56-44.25L25.56-44.25L25.56-44.25Q26.53-44.88 27.13-45.66L27.13-45.66L27.13-45.66Q27.72-46.44 27.72-47.38L27.72-47.38L27.72-47.38Q27.72-47.75 27.44-48.09L27.44-48.09L27.44-48.09Q27.16-48.44 26.69-48.44ZM58.41-0.44L58.41-0.44L58.41-0.44Q56.81-0.44 55.34-1L55.34-1L55.34-1Q53.88-1.56 52.77-2.70L52.77-2.70L52.77-2.70Q51.66-3.84 51-5.56L51-5.56L51-5.56Q50.34-7.28 50.34-9.59L50.34-9.59L50.34-9.59Q50.34-12.41 51.16-14.61L51.16-14.61L51.16-14.61Q51.97-16.81 53.23-18.33L53.23-18.33L53.23-18.33Q54.50-19.84 56.06-20.64L56.06-20.64L56.06-20.64Q57.63-21.44 59.13-21.44L59.13-21.44L59.13-21.44Q61.06-21.44 62.20-20.16L62.20-20.16L62.20-20.16Q63.34-18.88 63.34-16.84L63.34-16.84L63.34-16.84Q63.34-15.09 62.69-13.67L62.69-13.67L62.69-13.67Q62.03-12.25 60.95-11.23L60.95-11.23L60.95-11.23Q59.88-10.22 58.48-9.66L58.48-9.66L58.48-9.66Q57.09-9.09 55.59-9.09L55.59-9.09L55.59-9.09Q54.88-9.09 54.23-9.17L54.23-9.17L54.23-9.17Q53.59-9.25 53.09-9.34L53.09-9.34L53.09-9.34Q53.28-7.41 53.84-6L53.84-6L53.84-6Q54.41-4.59 55.25-3.69L55.25-3.69L55.25-3.69Q56.09-2.78 57.14-2.34L57.14-2.34L57.14-2.34Q58.19-1.91 59.31-1.91L59.31-1.91L59.31-1.91Q60.72-1.91 61.91-2.59L61.91-2.59L61.91-2.59Q63.09-3.28 64.09-4.39L64.09-4.39L64.09-4.39Q65.09-5.50 65.92-6.94L65.92-6.94L65.92-6.94Q66.75-8.38 67.41-9.86L67.41-9.86L67.41-9.86Q68.06-11.34 68.58-12.77L68.58-12.77L68.58-12.77Q69.09-14.19 69.50-15.28L69.50-15.28L70.72-14.97L70.72-14.97Q70.31-13.94 69.77-12.47L69.77-12.47L69.77-12.47Q69.22-11 68.50-9.39L68.50-9.39L68.50-9.39Q67.78-7.78 66.81-6.17L66.81-6.17L66.81-6.17Q65.84-4.56 64.63-3.30L64.63-3.30L64.63-3.30Q63.41-2.03 61.86-1.23L61.86-1.23L61.86-1.23Q60.31-0.44 58.41-0.44ZM59.19-20.22L59.19-20.22L59.19-20.22Q58.03-20.22 56.92-19.48L56.92-19.48L56.92-19.48Q55.81-18.75 54.94-17.47L54.94-17.47L54.94-17.47Q54.06-16.19 53.52-14.44L53.52-14.44L53.52-14.44Q52.97-12.69 52.97-10.69L52.97-10.69L52.97-10.69Q53.38-10.53 54.11-10.42L54.11-10.42L54.11-10.42Q54.84-10.31 55.91-10.31L55.91-10.31L55.91-10.31Q57.03-10.31 58.14-10.80L58.14-10.80L58.14-10.80Q59.25-11.28 60.14-12.14L60.14-12.14L60.14-12.14Q61.03-13 61.58-14.19L61.58-14.19L61.58-14.19Q62.13-15.38 62.13-16.78L62.13-16.78L62.13-16.78Q62.13-17.47 61.94-18.09L61.94-18.09L61.94-18.09Q61.75-18.72 61.38-19.19L61.38-19.19L61.38-19.19Q61-19.66 60.45-19.94L60.45-19.94L60.45-19.94Q59.91-20.22 59.19-20.22ZM80.75 0.38L80.75-0.72L80.75-0.72Q80.75-4.72 81.13-8.19L81.13-8.19L81.13-8.19Q80.16-6.44 79.25-5.31L79.25-5.31L79.25-5.31Q78.34-4.19 77.45-3.53L77.45-3.53L77.45-3.53Q76.56-2.88 75.66-2.63L75.66-2.63L75.66-2.63Q74.75-2.38 73.81-2.38L73.81-2.38L73.81-2.38Q73.06-2.38 72.11-2.61L72.11-2.61L72.11-2.61Q71.16-2.84 70.31-3.56L70.31-3.56L70.31-3.56Q69.47-4.28 68.89-5.61L68.89-5.61L68.89-5.61Q68.31-6.94 68.31-9.16L68.31-9.16L68.31-9.16Q68.31-11.47 68.88-13.55L68.88-13.55L68.88-13.55Q69.44-15.63 70.16-17.22L70.16-17.22L70.16-17.22Q70.97-19.09 72.03-20.69L72.03-20.69L73.19-20.28L73.19-20.28Q73.13-20.19 72.78-19.14L72.78-19.14L72.78-19.14Q72.44-18.09 72.05-16.52L72.05-16.52L72.05-16.52Q71.66-14.94 71.33-13.05L71.33-13.05L71.33-13.05Q71-11.16 71-9.41L71-9.41L71-9.41Q71-6.78 71.95-5.22L71.95-5.22L71.95-5.22Q72.91-3.66 74.66-3.66L74.66-3.66L74.66-3.66Q75.59-3.66 76.50-4.28L76.50-4.28L76.50-4.28Q77.41-4.91 78.28-6.02L78.28-6.02L78.28-6.02Q79.16-7.13 80.03-8.64L80.03-8.64L80.03-8.64Q80.91-10.16 81.75-11.97L81.75-11.97L81.75-11.97Q82.34-15.06 83.17-17.47L83.17-17.47L83.17-17.47Q84-19.88 84.91-21.56L84.91-21.56L86.06-21.25L86.06-21.25Q85.44-18.53 84.97-15.86L84.97-15.86L84.97-15.86Q84.50-13.19 84.17-10.66L84.17-10.66L84.17-10.66Q83.84-8.13 83.66-5.77L83.66-5.77L83.66-5.77Q83.47-3.41 83.38-1.34L83.38-1.34L83.38-1.34Q84.72-2.31 85.89-3.50L85.89-3.50L85.89-3.50Q87.06-4.69 88.19-6.31L88.19-6.31L88.19-6.31Q89.31-7.94 90.42-10.13L90.42-10.13L90.42-10.13Q91.53-12.31 92.72-15.28L92.72-15.28L93.94-14.97L93.94-14.97Q92.72-11.81 91.58-9.48L91.58-9.48L91.58-9.48Q90.44-7.16 89.20-5.39L89.20-5.39L89.20-5.39Q87.97-3.63 86.56-2.25L86.56-2.25L86.56-2.25Q85.16-0.88 83.38 0.38L83.38 0.38L83.38 0.38Q83.28 3.81 82.75 6.44L82.75 6.44L82.75 6.44Q82.22 9.06 81.44 11.02L81.44 11.02L81.44 11.02Q80.66 12.97 79.69 14.28L79.69 14.28L79.69 14.28Q78.72 15.59 77.75 16.41L77.75 16.41L77.75 16.41Q76.78 17.22 75.86 17.56L75.86 17.56L75.86 17.56Q74.94 17.91 74.28 17.91L74.28 17.91L74.28 17.91Q73.13 17.91 72.20 17.42L72.20 17.42L72.20 17.42Q71.28 16.94 70.63 16.16L70.63 16.16L70.63 16.16Q69.97 15.38 69.63 14.38L69.63 14.38L69.63 14.38Q69.28 13.38 69.28 12.34L69.28 12.34L69.28 12.34Q69.28 10.56 70.14 8.98L70.14 8.98L70.14 8.98Q71 7.41 72.44 6L72.44 6L72.44 6Q73.88 4.59 75.73 3.36L75.73 3.36L75.73 3.36Q77.59 2.13 79.59 1.03L79.59 1.03L79.59 1.03Q80.19 0.63 80.75 0.38L80.75 0.38ZM74.34 16.63L74.34 16.63L74.34 16.63Q75.34 16.63 76.39 15.83L76.39 15.83L76.39 15.83Q77.44 15.03 78.33 13.30L78.33 13.30L78.33 13.30Q79.22 11.56 79.86 8.83L79.86 8.83L79.86 8.83Q80.50 6.09 80.69 2.25L80.69 2.25L80.69 2.25Q80.59 2.31 80.48 2.36L80.48 2.36L80.48 2.36Q80.38 2.41 80.28 2.50L80.28 2.50L80.28 2.50Q78.69 3.50 77.13 4.70L77.13 4.70L77.13 4.70Q75.56 5.91 74.33 7.28L74.33 7.28L74.33 7.28Q73.09 8.66 72.31 10.17L72.31 10.17L72.31 10.17Q71.53 11.69 71.53 13.31L71.53 13.31L71.53 13.31Q71.53 13.88 71.73 14.47L71.73 14.47L71.73 14.47Q71.94 15.06 72.31 15.55L72.31 15.55L72.31 15.55Q72.69 16.03 73.20 16.33L73.20 16.33L73.20 16.33Q73.72 16.63 74.34 16.63ZM117.59-39.38L117.59-39.38L117.59-39.38Q117.59-37.41 117.14-35.19L117.14-35.19L117.14-35.19Q116.69-32.97 115.95-30.69L115.95-30.69L115.95-30.69Q115.22-28.41 114.27-26.09L114.27-26.09L114.27-26.09Q113.31-23.78 112.34-21.66L112.34-21.66L112.34-21.66Q111.38-19.53 110.44-17.63L110.44-17.63L110.44-17.63Q109.50-15.72 108.78-14.22L108.78-14.22L108.78-14.22Q108.91-11.66 109.22-9.59L109.22-9.59L109.22-9.59Q109.53-7.53 110-6.08L110-6.08L110-6.08Q110.47-4.63 111.13-3.84L111.13-3.84L111.13-3.84Q111.78-3.06 112.63-3.06L112.63-3.06L112.63-3.06Q113.56-3.06 114.48-3.94L114.48-3.94L114.48-3.94Q115.41-4.81 116.34-6.41L116.34-6.41L116.34-6.41Q117.28-8 118.25-10.25L118.25-10.25L118.25-10.25Q119.22-12.50 120.22-15.28L120.22-15.28L121.44-14.97L121.44-14.97Q120.69-12.81 119.75-10.42L119.75-10.42L119.75-10.42Q118.81-8.03 117.66-6.03L117.66-6.03L117.66-6.03Q116.50-4.03 115.14-2.72L115.14-2.72L115.14-2.72Q113.78-1.41 112.22-1.41L112.22-1.41L112.22-1.41Q110.66-1.41 109.59-2.38L109.59-2.38L109.59-2.38Q108.53-3.34 107.84-4.92L107.84-4.92L107.84-4.92Q107.16-6.50 106.78-8.52L106.78-8.52L106.78-8.52Q106.41-10.53 106.22-12.63L106.22-12.63L106.22-12.63Q106.03-14.72 106-16.70L106-16.70L106-16.70Q105.97-18.69 105.97-20.22L105.97-20.22L105.97-20.22Q105.97-23.06 106.20-25.88L106.20-25.88L106.20-25.88Q106.44-28.69 106.92-31.25L106.92-31.25L106.92-31.25Q107.41-33.81 108.09-36.02L108.09-36.02L108.09-36.02Q108.78-38.22 109.70-39.83L109.70-39.83L109.70-39.83Q110.63-41.44 111.73-42.34L111.73-42.34L111.73-42.34Q112.84-43.25 114.16-43.25L114.16-43.25L114.16-43.25Q115.09-43.25 115.75-42.94L115.75-42.94L115.75-42.94Q116.41-42.63 116.81-42.09L116.81-42.09L116.81-42.09Q117.22-41.56 117.41-40.86L117.41-40.86L117.41-40.86Q117.59-40.16 117.59-39.38ZM108.59-21.38L108.59-21.38L108.59-21.38Q108.59-20.19 108.59-19.05L108.59-19.05L108.59-19.05Q108.59-17.91 108.66-16.84L108.66-16.84L108.66-16.84Q109.44-18.41 110.31-20.27L110.31-20.27L110.31-20.27Q111.19-22.13 112.05-24.11L112.05-24.11L112.05-24.11Q112.91-26.09 113.69-28.13L113.69-28.13L113.69-28.13Q114.47-30.16 115.06-32.11L115.06-32.11L115.06-32.11Q115.66-34.06 116.02-35.83L116.02-35.83L116.02-35.83Q116.38-37.59 116.38-39.03L116.38-39.03L116.38-39.03Q116.38-39.50 116.30-40.03L116.30-40.03L116.30-40.03Q116.22-40.56 116.02-41.02L116.02-41.02L116.02-41.02Q115.81-41.47 115.44-41.77L115.44-41.77L115.44-41.77Q115.06-42.06 114.47-42.06L114.47-42.06L114.47-42.06Q113.28-42.06 112.20-40.52L112.20-40.52L112.20-40.52Q111.13-38.97 110.33-36.22L110.33-36.22L110.33-36.22Q109.53-33.47 109.06-29.67L109.06-29.67L109.06-29.67Q108.59-25.88 108.59-21.38ZM128.03-2.81L128.03-2.81L128.03-2.81Q129.78-2.81 131.39-4.09L131.39-4.09L131.39-4.09Q133-5.38 133.91-7.81L133.91-7.81L133.66-7.81L133.66-7.81Q131.72-7.81 130.08-8.47L130.08-8.47L130.08-8.47Q128.44-9.13 127.23-10.30L127.23-10.30L127.23-10.30Q126.03-11.47 125.34-13.11L125.34-13.11L125.34-13.11Q124.66-14.75 124.66-16.72L124.66-16.72L124.66-16.72Q124.66-17.81 124.95-18.94L124.95-18.94L124.95-18.94Q125.25-20.06 125.88-20.95L125.88-20.95L125.88-20.95Q126.50-21.84 127.50-22.41L127.50-22.41L127.50-22.41Q128.50-22.97 129.88-22.97L129.88-22.97L129.88-22.97Q131-22.97 132.09-22.52L132.09-22.52L132.09-22.52Q133.19-22.06 134.06-20.97L134.06-20.97L134.06-20.97Q134.94-19.88 135.48-18.02L135.48-18.02L135.48-18.02Q136.03-16.16 136.03-13.31L136.03-13.31L136.03-13.31Q136.03-12.25 135.94-11.20L135.94-11.20L135.94-11.20Q135.84-10.16 135.59-9.16L135.59-9.16L135.59-9.16Q136.81-9.38 137.77-9.94L137.77-9.94L137.77-9.94Q138.72-10.50 139.45-11.30L139.45-11.30L139.45-11.30Q140.19-12.09 140.75-13.11L140.75-13.11L140.75-13.11Q141.31-14.13 141.78-15.28L141.78-15.28L143-14.97L143-14.97Q142.34-13.19 141.48-11.94L141.48-11.94L141.48-11.94Q140.63-10.69 139.64-9.84L139.64-9.84L139.64-9.84Q138.66-9 137.58-8.55L137.58-8.55L137.58-8.55Q136.50-8.09 135.34-7.94L135.34-7.94L135.34-7.94Q134.91-6.41 134.19-5.06L134.19-5.06L134.19-5.06Q133.47-3.72 132.44-2.72L132.44-2.72L132.44-2.72Q131.41-1.72 130.05-1.14L130.05-1.14L130.05-1.14Q128.69-0.56 127-0.56L127-0.56L127-0.56Q125.59-0.56 124.17-1.14L124.17-1.14L124.17-1.14Q122.75-1.72 121.61-2.92L121.61-2.92L121.61-2.92Q120.47-4.13 119.77-5.95L119.77-5.95L119.77-5.95Q119.06-7.78 119.06-10.31L119.06-10.31L119.06-10.31Q119.06-11.97 119.45-13.56L119.45-13.56L119.45-13.56Q119.84-15.16 120.55-16.58L120.55-16.58L120.55-16.58Q121.25-18 122.22-19.23L122.22-19.23L122.22-19.23Q123.19-20.47 124.31-21.38L124.31-21.38L124.78-20.59L124.78-20.59Q124.06-19.94 123.41-18.97L123.41-18.97L123.41-18.97Q122.75-18 122.22-16.83L122.22-16.83L122.22-16.83Q121.69-15.66 121.38-14.36L121.38-14.36L121.38-14.36Q121.06-13.06 121.06-11.78L121.06-11.78L121.06-11.78Q121.06-9.25 121.70-7.53L121.70-7.53L121.70-7.53Q122.34-5.81 123.34-4.77L123.34-4.77L123.34-4.77Q124.34-3.72 125.59-3.27L125.59-3.27L125.59-3.27Q126.84-2.81 128.03-2.81ZM129.81-21.75L129.81-21.75L129.81-21.75Q128.97-21.75 128.25-21.39L128.25-21.39L128.25-21.39Q127.53-21.03 127-20.41L127-20.41L127-20.41Q126.47-19.78 126.16-18.91L126.16-18.91L126.16-18.91Q125.84-18.03 125.84-16.97L125.84-16.97L125.84-16.97Q125.84-15.13 126.47-13.66L126.47-13.66L126.47-13.66Q127.09-12.19 128.17-11.16L128.17-11.16L128.17-11.16Q129.25-10.13 130.69-9.58L130.69-9.58L130.69-9.58Q132.13-9.03 133.78-9.03L133.78-9.03L134.38-9.03L134.38-9.03Q134.63-10 134.72-11.06L134.72-11.06L134.72-11.06Q134.81-12.13 134.81-13.38L134.81-13.38L134.81-13.38Q134.75-15.78 134.33-17.39L134.33-17.39L134.33-17.39Q133.91-19 133.25-19.97L133.25-19.97L133.25-19.97Q132.59-20.94 131.70-21.34L131.70-21.34L131.70-21.34Q130.81-21.75 129.81-21.75ZM153.75-7.22L153.75-7.22L153.75-7.22Q152.78-5.47 151.88-4.31L151.88-4.31L151.88-4.31Q150.97-3.16 150.08-2.47L150.08-2.47L150.08-2.47Q149.19-1.78 148.28-1.50L148.28-1.50L148.28-1.50Q147.38-1.22 146.41-1.22L146.41-1.22L146.41-1.22Q145.63-1.22 144.63-1.47L144.63-1.47L144.63-1.47Q143.63-1.72 142.73-2.52L142.73-2.52L142.73-2.52Q141.84-3.31 141.23-4.81L141.23-4.81L141.23-4.81Q140.63-6.31 140.63-8.84L140.63-8.84L140.63-8.84Q140.63-11.38 141.22-13.61L141.22-13.61L141.22-13.61Q141.81-15.84 142.53-17.53L142.53-17.53L142.53-17.53Q143.38-19.47 144.47-21.13L144.47-21.13L145.63-20.75L145.63-20.75Q145.59-20.72 145.42-20.19L145.42-20.19L145.42-20.19Q145.25-19.66 144.98-18.75L144.98-18.75L144.98-18.75Q144.72-17.84 144.42-16.66L144.42-16.66L144.42-16.66Q144.13-15.47 143.86-14.14L143.86-14.14L143.86-14.14Q143.59-12.81 143.42-11.44L143.42-11.44L143.42-11.44Q143.25-10.06 143.25-8.78L143.25-8.78L143.25-8.78Q143.25-5.84 144.30-4.14L144.30-4.14L144.30-4.14Q145.34-2.44 147.03-2.44L147.03-2.44L147.03-2.44Q148.91-2.44 150.66-4.61L150.66-4.61L150.66-4.61Q152.41-6.78 154-10.69L154-10.69L154-10.69Q154.28-12.50 154.77-14.06L154.77-14.06L154.77-14.06Q155.25-15.63 155.73-16.84L155.73-16.84L155.73-16.84Q156.22-18.06 156.63-18.88L156.63-18.88L156.63-18.88Q157.03-19.69 157.22-19.97L157.22-19.97L158.31-19.72L158.31-19.72Q157.81-17.38 157.45-15.52L157.45-15.52L157.45-15.52Q157.09-13.66 156.88-12.16L156.88-12.16L156.88-12.16Q156.66-10.66 156.55-9.48L156.55-9.48L156.55-9.48Q156.44-8.31 156.44-7.38L156.44-7.38L156.44-7.38Q156.44-5.50 157.03-4.38L157.03-4.38L157.03-4.38Q157.63-3.25 158.88-3.25L158.88-3.25L158.88-3.25Q159.72-3.25 160.50-3.88L160.50-3.88L160.50-3.88Q161.28-4.50 162.13-5.94L162.13-5.94L162.13-5.94Q162.97-7.38 163.91-9.66L163.91-9.66L163.91-9.66Q164.84-11.94 166.03-15.28L166.03-15.28L167.25-14.97L167.25-14.97Q166.72-13.66 166.19-12.16L166.19-12.16L166.19-12.16Q165.66-10.66 165.05-9.16L165.05-9.16L165.05-9.16Q164.44-7.66 163.77-6.28L163.77-6.28L163.77-6.28Q163.09-4.91 162.27-3.84L162.27-3.84L162.27-3.84Q161.44-2.78 160.47-2.16L160.47-2.16L160.47-2.16Q159.50-1.53 158.31-1.53L158.31-1.53L158.31-1.53Q157.19-1.53 156.34-1.97L156.34-1.97L156.34-1.97Q155.50-2.41 154.92-3.16L154.92-3.16L154.92-3.16Q154.34-3.91 154.05-4.95L154.05-4.95L154.05-4.95Q153.75-6 153.75-7.22ZM176.84-39.38L176.84-39.38L176.84-39.38Q176.84-37.41 176.39-35.19L176.39-35.19L176.39-35.19Q175.94-32.97 175.20-30.69L175.20-30.69L175.20-30.69Q174.47-28.41 173.52-26.09L173.52-26.09L173.52-26.09Q172.56-23.78 171.59-21.66L171.59-21.66L171.59-21.66Q170.63-19.53 169.69-17.63L169.69-17.63L169.69-17.63Q168.75-15.72 168.03-14.22L168.03-14.22L168.03-14.22Q168.16-11.66 168.47-9.59L168.47-9.59L168.47-9.59Q168.78-7.53 169.25-6.08L169.25-6.08L169.25-6.08Q169.72-4.63 170.38-3.84L170.38-3.84L170.38-3.84Q171.03-3.06 171.88-3.06L171.88-3.06L171.88-3.06Q172.81-3.06 173.73-3.94L173.73-3.94L173.73-3.94Q174.66-4.81 175.59-6.41L175.59-6.41L175.59-6.41Q176.53-8 177.50-10.25L177.50-10.25L177.50-10.25Q178.47-12.50 179.47-15.28L179.47-15.28L180.69-14.97L180.69-14.97Q179.94-12.81 179-10.42L179-10.42L179-10.42Q178.06-8.03 176.91-6.03L176.91-6.03L176.91-6.03Q175.75-4.03 174.39-2.72L174.39-2.72L174.39-2.72Q173.03-1.41 171.47-1.41L171.47-1.41L171.47-1.41Q169.91-1.41 168.84-2.38L168.84-2.38L168.84-2.38Q167.78-3.34 167.09-4.92L167.09-4.92L167.09-4.92Q166.41-6.50 166.03-8.52L166.03-8.52L166.03-8.52Q165.66-10.53 165.47-12.63L165.47-12.63L165.47-12.63Q165.28-14.72 165.25-16.70L165.25-16.70L165.25-16.70Q165.22-18.69 165.22-20.22L165.22-20.22L165.22-20.22Q165.22-23.06 165.45-25.88L165.45-25.88L165.45-25.88Q165.69-28.69 166.17-31.25L166.17-31.25L166.17-31.25Q166.66-33.81 167.34-36.02L167.34-36.02L167.34-36.02Q168.03-38.22 168.95-39.83L168.95-39.83L168.95-39.83Q169.88-41.44 170.98-42.34L170.98-42.34L170.98-42.34Q172.09-43.25 173.41-43.25L173.41-43.25L173.41-43.25Q174.34-43.25 175-42.94L175-42.94L175-42.94Q175.66-42.63 176.06-42.09L176.06-42.09L176.06-42.09Q176.47-41.56 176.66-40.86L176.66-40.86L176.66-40.86Q176.84-40.16 176.84-39.38ZM167.84-21.38L167.84-21.38L167.84-21.38Q167.84-20.19 167.84-19.05L167.84-19.05L167.84-19.05Q167.84-17.91 167.91-16.84L167.91-16.84L167.91-16.84Q168.69-18.41 169.56-20.27L169.56-20.27L169.56-20.27Q170.44-22.13 171.30-24.11L171.30-24.11L171.30-24.11Q172.16-26.09 172.94-28.13L172.94-28.13L172.94-28.13Q173.72-30.16 174.31-32.11L174.31-32.11L174.31-32.11Q174.91-34.06 175.27-35.83L175.27-35.83L175.27-35.83Q175.63-37.59 175.63-39.03L175.63-39.03L175.63-39.03Q175.63-39.50 175.55-40.03L175.55-40.03L175.55-40.03Q175.47-40.56 175.27-41.02L175.27-41.02L175.27-41.02Q175.06-41.47 174.69-41.77L174.69-41.77L174.69-41.77Q174.31-42.06 173.72-42.06L173.72-42.06L173.72-42.06Q172.53-42.06 171.45-40.52L171.45-40.52L171.45-40.52Q170.38-38.97 169.58-36.22L169.58-36.22L169.58-36.22Q168.78-33.47 168.31-29.67L168.31-29.67L168.31-29.67Q167.84-25.88 167.84-21.38ZM187.28-2.81L187.28-2.81L187.28-2.81Q189.03-2.81 190.64-4.09L190.64-4.09L190.64-4.09Q192.25-5.38 193.16-7.81L193.16-7.81L192.91-7.81L192.91-7.81Q190.97-7.81 189.33-8.47L189.33-8.47L189.33-8.47Q187.69-9.13 186.48-10.30L186.48-10.30L186.48-10.30Q185.28-11.47 184.59-13.11L184.59-13.11L184.59-13.11Q183.91-14.75 183.91-16.72L183.91-16.72L183.91-16.72Q183.91-17.81 184.20-18.94L184.20-18.94L184.20-18.94Q184.50-20.06 185.13-20.95L185.13-20.95L185.13-20.95Q185.75-21.84 186.75-22.41L186.75-22.41L186.75-22.41Q187.75-22.97 189.13-22.97L189.13-22.97L189.13-22.97Q190.25-22.97 191.34-22.52L191.34-22.52L191.34-22.52Q192.44-22.06 193.31-20.97L193.31-20.97L193.31-20.97Q194.19-19.88 194.73-18.02L194.73-18.02L194.73-18.02Q195.28-16.16 195.28-13.31L195.28-13.31L195.28-13.31Q195.28-12.25 195.19-11.20L195.19-11.20L195.19-11.20Q195.09-10.16 194.84-9.16L194.84-9.16L194.84-9.16Q196.06-9.38 197.02-9.94L197.02-9.94L197.02-9.94Q197.97-10.50 198.70-11.30L198.70-11.30L198.70-11.30Q199.44-12.09 200-13.11L200-13.11L200-13.11Q200.56-14.13 201.03-15.28L201.03-15.28L202.25-14.97L202.25-14.97Q201.59-13.19 200.73-11.94L200.73-11.94L200.73-11.94Q199.88-10.69 198.89-9.84L198.89-9.84L198.89-9.84Q197.91-9 196.83-8.55L196.83-8.55L196.83-8.55Q195.75-8.09 194.59-7.94L194.59-7.94L194.59-7.94Q194.16-6.41 193.44-5.06L193.44-5.06L193.44-5.06Q192.72-3.72 191.69-2.72L191.69-2.72L191.69-2.72Q190.66-1.72 189.30-1.14L189.30-1.14L189.30-1.14Q187.94-0.56 186.25-0.56L186.25-0.56L186.25-0.56Q184.84-0.56 183.42-1.14L183.42-1.14L183.42-1.14Q182-1.72 180.86-2.92L180.86-2.92L180.86-2.92Q179.72-4.13 179.02-5.95L179.02-5.95L179.02-5.95Q178.31-7.78 178.31-10.31L178.31-10.31L178.31-10.31Q178.31-11.97 178.70-13.56L178.70-13.56L178.70-13.56Q179.09-15.16 179.80-16.58L179.80-16.58L179.80-16.58Q180.50-18 181.47-19.23L181.47-19.23L181.47-19.23Q182.44-20.47 183.56-21.38L183.56-21.38L184.03-20.59L184.03-20.59Q183.31-19.94 182.66-18.97L182.66-18.97L182.66-18.97Q182-18 181.47-16.83L181.47-16.83L181.47-16.83Q180.94-15.66 180.63-14.36L180.63-14.36L180.63-14.36Q180.31-13.06 180.31-11.78L180.31-11.78L180.31-11.78Q180.31-9.25 180.95-7.53L180.95-7.53L180.95-7.53Q181.59-5.81 182.59-4.77L182.59-4.77L182.59-4.77Q183.59-3.72 184.84-3.27L184.84-3.27L184.84-3.27Q186.09-2.81 187.28-2.81ZM189.06-21.75L189.06-21.75L189.06-21.75Q188.22-21.75 187.50-21.39L187.50-21.39L187.50-21.39Q186.78-21.03 186.25-20.41L186.25-20.41L186.25-20.41Q185.72-19.78 185.41-18.91L185.41-18.91L185.41-18.91Q185.09-18.03 185.09-16.97L185.09-16.97L185.09-16.97Q185.09-15.13 185.72-13.66L185.72-13.66L185.72-13.66Q186.34-12.19 187.42-11.16L187.42-11.16L187.42-11.16Q188.50-10.13 189.94-9.58L189.94-9.58L189.94-9.58Q191.38-9.03 193.03-9.03L193.03-9.03L193.63-9.03L193.63-9.03Q193.88-10 193.97-11.06L193.97-11.06L193.97-11.06Q194.06-12.13 194.06-13.38L194.06-13.38L194.06-13.38Q194-15.78 193.58-17.39L193.58-17.39L193.58-17.39Q193.16-19 192.50-19.97L192.50-19.97L192.50-19.97Q191.84-20.94 190.95-21.34L190.95-21.34L190.95-21.34Q190.06-21.75 189.06-21.75ZM213-7.22L213-7.22L213-7.22Q212.03-5.47 211.13-4.31L211.13-4.31L211.13-4.31Q210.22-3.16 209.33-2.47L209.33-2.47L209.33-2.47Q208.44-1.78 207.53-1.50L207.53-1.50L207.53-1.50Q206.63-1.22 205.66-1.22L205.66-1.22L205.66-1.22Q204.88-1.22 203.88-1.47L203.88-1.47L203.88-1.47Q202.88-1.72 201.98-2.52L201.98-2.52L201.98-2.52Q201.09-3.31 200.48-4.81L200.48-4.81L200.48-4.81Q199.88-6.31 199.88-8.84L199.88-8.84L199.88-8.84Q199.88-11.38 200.47-13.61L200.47-13.61L200.47-13.61Q201.06-15.84 201.78-17.53L201.78-17.53L201.78-17.53Q202.63-19.47 203.72-21.13L203.72-21.13L204.88-20.75L204.88-20.75Q204.84-20.72 204.67-20.19L204.67-20.19L204.67-20.19Q204.50-19.66 204.23-18.75L204.23-18.75L204.23-18.75Q203.97-17.84 203.67-16.66L203.67-16.66L203.67-16.66Q203.38-15.47 203.11-14.14L203.11-14.14L203.11-14.14Q202.84-12.81 202.67-11.44L202.67-11.44L202.67-11.44Q202.50-10.06 202.50-8.78L202.50-8.78L202.50-8.78Q202.50-5.84 203.55-4.14L203.55-4.14L203.55-4.14Q204.59-2.44 206.28-2.44L206.28-2.44L206.28-2.44Q208.16-2.44 209.91-4.61L209.91-4.61L209.91-4.61Q211.66-6.78 213.25-10.69L213.25-10.69L213.25-10.69Q213.53-12.50 214.02-14.06L214.02-14.06L214.02-14.06Q214.50-15.63 214.98-16.84L214.98-16.84L214.98-16.84Q215.47-18.06 215.88-18.88L215.88-18.88L215.88-18.88Q216.28-19.69 216.47-19.97L216.47-19.97L217.56-19.72L217.56-19.72Q217.06-17.38 216.70-15.52L216.70-15.52L216.70-15.52Q216.34-13.66 216.13-12.16L216.13-12.16L216.13-12.16Q215.91-10.66 215.80-9.48L215.80-9.48L215.80-9.48Q215.69-8.31 215.69-7.38L215.69-7.38L215.69-7.38Q215.69-5.50 216.28-4.38L216.28-4.38L216.28-4.38Q216.88-3.25 218.13-3.25L218.13-3.25L218.13-3.25Q218.97-3.25 219.75-3.88L219.75-3.88L219.75-3.88Q220.53-4.50 221.38-5.94L221.38-5.94L221.38-5.94Q222.22-7.38 223.16-9.66L223.16-9.66L223.16-9.66Q224.09-11.94 225.28-15.28L225.28-15.28L226.50-14.97L226.50-14.97Q225.97-13.66 225.44-12.16L225.44-12.16L225.44-12.16Q224.91-10.66 224.30-9.16L224.30-9.16L224.30-9.16Q223.69-7.66 223.02-6.28L223.02-6.28L223.02-6.28Q222.34-4.91 221.52-3.84L221.52-3.84L221.52-3.84Q220.69-2.78 219.72-2.16L219.72-2.16L219.72-2.16Q218.75-1.53 217.56-1.53L217.56-1.53L217.56-1.53Q216.44-1.53 215.59-1.97L215.59-1.97L215.59-1.97Q214.75-2.41 214.17-3.16L214.17-3.16L214.17-3.16Q213.59-3.91 213.30-4.95L213.30-4.95L213.30-4.95Q213-6 213-7.22ZM218.19-25.16L218.69-26.31L218.69-26.31Q219.16-26.03 219.81-25.66L219.81-25.66L219.81-25.66Q220.47-25.28 221.34-24.94L221.34-24.94L221.34-24.94Q222.22-24.59 223.30-24.30L223.30-24.30L223.30-24.30Q224.38-24 225.66-23.88L225.66-23.88L225.66-23.88Q226.09-26.69 226.78-28.95L226.78-28.95L226.78-28.95Q227.47-31.22 228.30-32.83L228.30-32.83L228.30-32.83Q229.13-34.44 230.02-35.30L230.02-35.30L230.02-35.30Q230.91-36.16 231.75-36.16L231.75-36.16L231.75-36.16Q232.72-36.16 233.13-35.41L233.13-35.41L233.13-35.41Q233.53-34.66 233.53-33.41L233.53-33.41L233.53-33.41Q233.53-32.50 233.34-31.41L233.34-31.41L233.34-31.41Q233.16-30.31 232.84-29.08L232.84-29.08L232.84-29.08Q232.53-27.84 232.09-26.52L232.09-26.52L232.09-26.52Q231.66-25.19 231.19-23.88L231.19-23.88L231.19-23.88Q234.31-24.16 236.95-24.91L236.95-24.91L236.95-24.91Q239.59-25.66 241.53-26.44L241.53-26.44L242.13-25.28L242.13-25.28Q239.56-24.31 236.81-23.55L236.81-23.55L236.81-23.55Q234.06-22.78 230.66-22.59L230.66-22.59L230.66-22.59Q229.88-20.56 229.05-18.73L229.05-18.73L229.05-18.73Q228.22-16.91 227.53-15.56L227.53-15.56L227.53-15.56Q227.56-13.81 227.73-11.77L227.73-11.77L227.73-11.77Q227.91-9.72 228.42-7.94L228.42-7.94L228.42-7.94Q228.94-6.16 229.89-4.97L229.89-4.97L229.89-4.97Q230.84-3.78 232.41-3.78L232.41-3.78L232.41-3.78Q233.72-3.78 234.81-4.89L234.81-4.89L234.81-4.89Q235.91-6 236.83-7.70L236.83-7.70L236.83-7.70Q237.75-9.41 238.53-11.44L238.53-11.44L238.53-11.44Q239.31-13.47 240-15.28L240-15.28L241.22-14.97L241.22-14.97Q240.78-13.84 240.28-12.44L240.28-12.44L240.28-12.44Q239.78-11.03 239.16-9.58L239.16-9.58L239.16-9.58Q238.53-8.13 237.78-6.77L237.78-6.77L237.78-6.77Q237.03-5.41 236.13-4.33L236.13-4.33L236.13-4.33Q235.22-3.25 234.13-2.61L234.13-2.61L234.13-2.61Q233.03-1.97 231.75-1.97L231.75-1.97L231.75-1.97Q230.38-1.97 229.17-2.59L229.17-2.59L229.17-2.59Q227.97-3.22 227.08-4.83L227.08-4.83L227.08-4.83Q226.19-6.44 225.67-9.20L225.67-9.20L225.67-9.20Q225.16-11.97 225.16-16.25L225.16-16.25L225.16-16.25Q225.16-19.69 225.53-22.66L225.53-22.66L225.53-22.66Q222.84-23 221.02-23.73L221.02-23.73L221.02-23.73Q219.19-24.47 218.19-25.16L218.19-25.16ZM231.94-34.50L231.94-34.50L231.94-34.50Q231.66-34.50 231.09-33.94L231.09-33.94L231.09-33.94Q230.53-33.38 229.91-32.11L229.91-32.11L229.91-32.11Q229.28-30.84 228.70-28.80L228.70-28.80L228.70-28.80Q228.13-26.75 227.78-23.75L227.78-23.75L228.38-23.75L229.91-23.75L229.91-23.75Q230.47-25.31 230.89-26.78L230.89-26.78L230.89-26.78Q231.31-28.25 231.63-29.52L231.63-29.52L231.63-29.52Q231.94-30.78 232.09-31.80L232.09-31.80L232.09-31.80Q232.25-32.81 232.25-33.47L232.25-33.47L232.25-33.47Q232.25-34.50 231.94-34.50ZM227.53-18.13L227.53-18.06L227.53-18.06Q228.06-19.16 228.53-20.27L228.53-20.27L228.53-20.27Q229-21.38 229.44-22.53L229.44-22.53L228.28-22.53L227.66-22.53L227.66-22.53Q227.59-21.53 227.56-20.42L227.56-20.42L227.56-20.42Q227.53-19.31 227.53-18.13L227.53-18.13ZM246.84-0.44L246.84-0.44L246.84-0.44Q245.25-0.44 243.78-1L243.78-1L243.78-1Q242.31-1.56 241.20-2.70L241.20-2.70L241.20-2.70Q240.09-3.84 239.44-5.56L239.44-5.56L239.44-5.56Q238.78-7.28 238.78-9.59L238.78-9.59L238.78-9.59Q238.78-12.41 239.59-14.61L239.59-14.61L239.59-14.61Q240.41-16.81 241.67-18.33L241.67-18.33L241.67-18.33Q242.94-19.84 244.50-20.64L244.50-20.64L244.50-20.64Q246.06-21.44 247.56-21.44L247.56-21.44L247.56-21.44Q249.50-21.44 250.64-20.16L250.64-20.16L250.64-20.16Q251.78-18.88 251.78-16.84L251.78-16.84L251.78-16.84Q251.78-15.09 251.13-13.67L251.13-13.67L251.13-13.67Q250.47-12.25 249.39-11.23L249.39-11.23L249.39-11.23Q248.31-10.22 246.92-9.66L246.92-9.66L246.92-9.66Q245.53-9.09 244.03-9.09L244.03-9.09L244.03-9.09Q243.31-9.09 242.67-9.17L242.67-9.17L242.67-9.17Q242.03-9.25 241.53-9.34L241.53-9.34L241.53-9.34Q241.72-7.41 242.28-6L242.28-6L242.28-6Q242.84-4.59 243.69-3.69L243.69-3.69L243.69-3.69Q244.53-2.78 245.58-2.34L245.58-2.34L245.58-2.34Q246.63-1.91 247.75-1.91L247.75-1.91L247.75-1.91Q249.16-1.91 250.34-2.59L250.34-2.59L250.34-2.59Q251.53-3.28 252.53-4.39L252.53-4.39L252.53-4.39Q253.53-5.50 254.36-6.94L254.36-6.94L254.36-6.94Q255.19-8.38 255.84-9.86L255.84-9.86L255.84-9.86Q256.50-11.34 257.02-12.77L257.02-12.77L257.02-12.77Q257.53-14.19 257.94-15.28L257.94-15.28L259.16-14.97L259.16-14.97Q258.75-13.94 258.20-12.47L258.20-12.47L258.20-12.47Q257.66-11 256.94-9.39L256.94-9.39L256.94-9.39Q256.22-7.78 255.25-6.17L255.25-6.17L255.25-6.17Q254.28-4.56 253.06-3.30L253.06-3.30L253.06-3.30Q251.84-2.03 250.30-1.23L250.30-1.23L250.30-1.23Q248.75-0.44 246.84-0.44ZM247.63-20.22L247.63-20.22L247.63-20.22Q246.47-20.22 245.36-19.48L245.36-19.48L245.36-19.48Q244.25-18.75 243.38-17.47L243.38-17.47L243.38-17.47Q242.50-16.19 241.95-14.44L241.95-14.44L241.95-14.44Q241.41-12.69 241.41-10.69L241.41-10.69L241.41-10.69Q241.81-10.53 242.55-10.42L242.55-10.42L242.55-10.42Q243.28-10.31 244.34-10.31L244.34-10.31L244.34-10.31Q245.47-10.31 246.58-10.80L246.58-10.80L246.58-10.80Q247.69-11.28 248.58-12.14L248.58-12.14L248.58-12.14Q249.47-13 250.02-14.19L250.02-14.19L250.02-14.19Q250.56-15.38 250.56-16.78L250.56-16.78L250.56-16.78Q250.56-17.47 250.38-18.09L250.38-18.09L250.38-18.09Q250.19-18.72 249.81-19.19L249.81-19.19L249.81-19.19Q249.44-19.66 248.89-19.94L248.89-19.94L248.89-19.94Q248.34-20.22 247.63-20.22ZM259.66 5.44L258.75 4.75L258.75 4.75Q259.56 3.66 260.20 2.44L260.20 2.44L260.20 2.44Q260.84 1.22 260.91 0.25L260.91 0.25L260.91 0.25Q260.75 0.31 260.59 0.31L260.59 0.31L260.59 0.31Q260.44 0.31 260.28 0.31L260.28 0.31L260.28 0.31Q259.22 0.31 258.69-0.39L258.69-0.39L258.69-0.39Q258.16-1.09 258.16-1.84L258.16-1.84L258.16-1.84Q258.16-2.81 258.80-3.45L258.80-3.45L258.80-3.45Q259.44-4.09 260.41-4.09L260.41-4.09L260.41-4.09Q261.56-4.09 262.20-3.28L262.20-3.28L262.20-3.28Q262.84-2.47 262.84-1.22L262.84-1.22L262.84-1.22Q262.84-0.38 262.59 0.53L262.59 0.53L262.59 0.53Q262.34 1.44 261.91 2.31L261.91 2.31L261.91 2.31Q261.47 3.19 260.89 3.98L260.89 3.98L260.89 3.98Q260.31 4.78 259.66 5.44L259.66 5.44ZM283.47-22.16L284.59-21.75L284.59-21.75Q284.53-21.25 284.27-19.58L284.27-19.58L284.27-19.58Q284-17.91 283.69-15.09L283.69-15.09L283.69-15.09Q283.38-12.28 283.05-8.33L283.05-8.33L283.05-8.33Q282.72-4.38 282.50 0.72L282.50 0.72L282.50 0.72Q283.91-0.69 285.31-2.48L285.31-2.48L285.31-2.48Q286.72-4.28 288.03-6.33L288.03-6.33L288.03-6.33Q289.34-8.38 290.48-10.64L290.48-10.64L290.48-10.64Q291.63-12.91 292.47-15.28L292.47-15.28L293.69-14.97L293.69-14.97Q292.69-12.28 291.39-9.73L291.39-9.73L291.39-9.73Q290.09-7.19 288.61-4.89L288.61-4.89L288.61-4.89Q287.13-2.59 285.53-0.63L285.53-0.63L285.53-0.63Q283.94 1.34 282.38 2.88L282.38 2.88L282.38 4.16L282.38 4.16Q282.22 8.38 281.38 11.33L281.38 11.33L281.38 11.33Q280.53 14.28 279.36 16.14L279.36 16.14L279.36 16.14Q278.19 18 276.83 18.86L276.83 18.86L276.83 18.86Q275.47 19.72 274.31 19.72L274.31 19.72L274.31 19.72Q273.34 19.72 272.48 19.38L272.48 19.38L272.48 19.38Q271.63 19.03 270.97 18.41L270.97 18.41L270.97 18.41Q270.31 17.78 269.94 16.88L269.94 16.88L269.94 16.88Q269.56 15.97 269.56 14.84L269.56 14.84L269.56 14.84Q269.56 12.88 270.25 11.33L270.25 11.33L270.25 11.33Q270.94 9.78 272.11 8.53L272.11 8.53L272.11 8.53Q273.28 7.28 274.83 6.25L274.83 6.25L274.83 6.25Q276.38 5.22 278.09 4.28L278.09 4.28L278.09 4.28Q278.44 4.09 278.77 3.88L278.77 3.88L278.77 3.88Q279.09 3.66 279.44 3.41L279.44 3.41L279.44 3.41Q279.63-0.66 279.86-3.66L279.86-3.66L279.86-3.66Q280.09-6.66 280.38-8.92L280.38-8.92L280.38-8.92Q280.66-11.19 281-12.91L281-12.91L281-12.91Q281.34-14.63 281.73-16.11L281.73-16.11L281.73-16.11Q282.13-17.59 282.55-19.03L282.55-19.03L282.55-19.03Q282.97-20.47 283.47-22.16L283.47-22.16ZM278.66 12.34L278.66 12.34L278.66 12.34Q279 11.16 279.16 9.53L279.16 9.53L279.16 9.53Q279.31 7.91 279.38 5.94L279.38 5.94L279.38 5.50L279.38 5.50Q279.03 5.75 278.73 5.95L278.73 5.95L278.73 5.95Q278.44 6.16 278.16 6.34L278.16 6.34L278.16 6.34Q276.59 7.25 275.31 8.23L275.31 8.23L275.31 8.23Q274.03 9.22 273.13 10.33L273.13 10.33L273.13 10.33Q272.22 11.44 271.72 12.70L271.72 12.70L271.72 12.70Q271.22 13.97 271.22 15.44L271.22 15.44L271.22 15.44Q271.22 16 271.42 16.53L271.42 16.53L271.42 16.53Q271.63 17.06 271.98 17.48L271.98 17.48L271.98 17.48Q272.34 17.91 272.84 18.17L272.84 18.17L272.84 18.17Q273.34 18.44 273.97 18.44L273.97 18.44L273.97 18.44Q275.34 18.44 276.55 16.94L276.55 16.94L276.55 16.94Q277.75 15.44 278.66 12.34ZM289.03-32.38L289.03-32.38L289.03-32.38Q289.03-31.28 288.19-30.69L288.19-30.69L288.19-30.69Q287.34-30.09 286.09-30.09L286.09-30.09L286.09-30.09Q285.41-30.09 284.83-30.30L284.83-30.30L284.83-30.30Q284.25-30.50 283.83-30.83L283.83-30.83L283.83-30.83Q283.41-31.16 283.17-31.61L283.17-31.61L283.17-31.61Q282.94-32.06 282.94-32.56L282.94-32.56L282.94-32.56Q282.94-33.63 283.77-34.28L283.77-34.28L283.77-34.28Q284.59-34.94 285.69-34.94L285.69-34.94L285.69-34.94Q286.47-34.94 287.09-34.70L287.09-34.70L287.09-34.70Q287.72-34.47 288.16-34.09L288.16-34.09L288.16-34.09Q288.59-33.72 288.81-33.27L288.81-33.27L288.81-33.27Q289.03-32.81 289.03-32.38ZM287.38-32.38L287.38-32.38L287.38-32.38Q287.38-32.69 287.09-32.95L287.09-32.95L287.09-32.95Q286.81-33.22 286.28-33.22L286.28-33.22L286.28-33.22Q285.31-33.22 285.31-32.50L285.31-32.50L285.31-32.50Q285.31-32.16 285.61-31.92L285.61-31.92L285.61-31.92Q285.91-31.69 286.41-31.69L286.41-31.69L286.41-31.69Q286.88-31.69 287.13-31.89L287.13-31.89L287.13-31.89Q287.38-32.09 287.38-32.38ZM299.31-0.44L299.31-0.44L299.31-0.44Q297.72-0.44 296.25-1L296.25-1L296.25-1Q294.78-1.56 293.67-2.70L293.67-2.70L293.67-2.70Q292.56-3.84 291.91-5.56L291.91-5.56L291.91-5.56Q291.25-7.28 291.25-9.59L291.25-9.59L291.25-9.59Q291.25-12.41 292.06-14.61L292.06-14.61L292.06-14.61Q292.88-16.81 294.14-18.33L294.14-18.33L294.14-18.33Q295.41-19.84 296.97-20.64L296.97-20.64L296.97-20.64Q298.53-21.44 300.03-21.44L300.03-21.44L300.03-21.44Q301.97-21.44 303.11-20.16L303.11-20.16L303.11-20.16Q304.25-18.88 304.25-16.84L304.25-16.84L304.25-16.84Q304.25-15.09 303.59-13.67L303.59-13.67L303.59-13.67Q302.94-12.25 301.86-11.23L301.86-11.23L301.86-11.23Q300.78-10.22 299.39-9.66L299.39-9.66L299.39-9.66Q298-9.09 296.50-9.09L296.50-9.09L296.50-9.09Q295.78-9.09 295.14-9.17L295.14-9.17L295.14-9.17Q294.50-9.25 294-9.34L294-9.34L294-9.34Q294.19-7.41 294.75-6L294.75-6L294.75-6Q295.31-4.59 296.16-3.69L296.16-3.69L296.16-3.69Q297-2.78 298.05-2.34L298.05-2.34L298.05-2.34Q299.09-1.91 300.22-1.91L300.22-1.91L300.22-1.91Q301.63-1.91 302.81-2.59L302.81-2.59L302.81-2.59Q304-3.28 305-4.39L305-4.39L305-4.39Q306-5.50 306.83-6.94L306.83-6.94L306.83-6.94Q307.66-8.38 308.31-9.86L308.31-9.86L308.31-9.86Q308.97-11.34 309.48-12.77L309.48-12.77L309.48-12.77Q310-14.19 310.41-15.28L310.41-15.28L311.63-14.97L311.63-14.97Q311.22-13.94 310.67-12.47L310.67-12.47L310.67-12.47Q310.13-11 309.41-9.39L309.41-9.39L309.41-9.39Q308.69-7.78 307.72-6.17L307.72-6.17L307.72-6.17Q306.75-4.56 305.53-3.30L305.53-3.30L305.53-3.30Q304.31-2.03 302.77-1.23L302.77-1.23L302.77-1.23Q301.22-0.44 299.31-0.44ZM300.09-20.22L300.09-20.22L300.09-20.22Q298.94-20.22 297.83-19.48L297.83-19.48L297.83-19.48Q296.72-18.75 295.84-17.47L295.84-17.47L295.84-17.47Q294.97-16.19 294.42-14.44L294.42-14.44L294.42-14.44Q293.88-12.69 293.88-10.69L293.88-10.69L293.88-10.69Q294.28-10.53 295.02-10.42L295.02-10.42L295.02-10.42Q295.75-10.31 296.81-10.31L296.81-10.31L296.81-10.31Q297.94-10.31 299.05-10.80L299.05-10.80L299.05-10.80Q300.16-11.28 301.05-12.14L301.05-12.14L301.05-12.14Q301.94-13 302.48-14.19L302.48-14.19L302.48-14.19Q303.03-15.38 303.03-16.78L303.03-16.78L303.03-16.78Q303.03-17.47 302.84-18.09L302.84-18.09L302.84-18.09Q302.66-18.72 302.28-19.19L302.28-19.19L302.28-19.19Q301.91-19.66 301.36-19.94L301.36-19.94L301.36-19.94Q300.81-20.22 300.09-20.22ZM345.28-15.28L346.50-14.97L346.50-14.97Q345.53-12.66 344.67-11L344.67-11L344.67-11Q343.81-9.34 342.97-8.27L342.97-8.27L342.97-8.27Q342.13-7.19 341.23-6.67L341.23-6.67L341.23-6.67Q340.34-6.16 339.31-6.16L339.31-6.16L339.31-6.16Q337.91-6.16 336.92-7.05L336.92-7.05L336.92-7.05Q335.94-7.94 335.75-9.28L335.75-9.28L335.75-9.28Q334.88-7.25 333.91-5.64L333.91-5.64L333.91-5.64Q332.94-4.03 331.97-2.91L331.97-2.91L331.97-2.91Q331-1.78 330.09-1.17L330.09-1.17L330.09-1.17Q329.19-0.56 328.50-0.56L328.50-0.56L328.50-0.56Q327.94-0.56 327.11-1.03L327.11-1.03L327.11-1.03Q326.28-1.50 325.53-2.59L325.53-2.59L325.53-2.59Q324.78-3.69 324.25-5.48L324.25-5.48L324.25-5.48Q323.72-7.28 323.72-9.91L323.72-9.91L323.72-9.91Q323.72-11.63 323.95-13.08L323.95-13.08L323.95-13.08Q324.19-14.53 324.47-15.59L324.47-15.59L324.47-15.59Q324.81-16.84 325.25-17.84L325.25-17.84L326.47-17.72L326.47-17.72Q326.31-16.38 326.27-15.11L326.27-15.11L326.27-15.11Q326.22-13.84 326.22-12.69L326.22-12.69L326.22-12.69Q326.22-10.09 326.47-8.06L326.47-8.06L326.47-8.06Q326.72-6.03 327.08-4.64L327.08-4.64L327.08-4.64Q327.44-3.25 327.88-2.52L327.88-2.52L327.88-2.52Q328.31-1.78 328.69-1.78L328.69-1.78L328.69-1.78Q329.13-1.78 329.91-2.48L329.91-2.48L329.91-2.48Q330.69-3.19 331.63-4.44L331.63-4.44L331.63-4.44Q332.56-5.69 333.53-7.38L333.53-7.38L333.53-7.38Q334.50-9.06 335.28-11L335.28-11L335.28-11Q335.19-11.59 335.08-12.45L335.08-12.45L335.08-12.45Q334.97-13.31 334.97-13.94L334.97-13.94L334.97-13.94Q334.97-16 335.33-17.25L335.33-17.25L335.33-17.25Q335.69-18.50 336.17-19.16L336.17-19.16L336.17-19.16Q336.66-19.81 337.16-20.02L337.16-20.02L337.16-20.02Q337.66-20.22 337.91-20.22L337.91-20.22L337.91-20.22Q338.75-20.22 338.75-18.94L338.75-18.94L338.75-18.94Q338.75-18.28 338.58-17.34L338.58-17.34L338.58-17.34Q338.41-16.41 338.14-15.38L338.14-15.38L338.14-15.38Q337.88-14.34 337.53-13.31L337.53-13.31L337.53-13.31Q337.19-12.28 336.81-11.41L336.81-11.41L336.81-11.41Q336.81-10.31 337.05-9.58L337.05-9.58L337.05-9.58Q337.28-8.84 337.67-8.39L337.67-8.39L337.67-8.39Q338.06-7.94 338.56-7.75L338.56-7.75L338.56-7.75Q339.06-7.56 339.59-7.56L339.59-7.56L339.59-7.56Q340.94-7.56 342.31-9.45L342.31-9.45L342.31-9.45Q343.69-11.34 345.28-15.28L345.28-15.28ZM353.09-2.81L353.09-2.81L353.09-2.81Q354.84-2.81 356.45-4.09L356.45-4.09L356.45-4.09Q358.06-5.38 358.97-7.81L358.97-7.81L358.72-7.81L358.72-7.81Q356.78-7.81 355.14-8.47L355.14-8.47L355.14-8.47Q353.50-9.13 352.30-10.30L352.30-10.30L352.30-10.30Q351.09-11.47 350.41-13.11L350.41-13.11L350.41-13.11Q349.72-14.75 349.72-16.72L349.72-16.72L349.72-16.72Q349.72-17.81 350.02-18.94L350.02-18.94L350.02-18.94Q350.31-20.06 350.94-20.95L350.94-20.95L350.94-20.95Q351.56-21.84 352.56-22.41L352.56-22.41L352.56-22.41Q353.56-22.97 354.94-22.97L354.94-22.97L354.94-22.97Q356.06-22.97 357.16-22.52L357.16-22.52L357.16-22.52Q358.25-22.06 359.13-20.97L359.13-20.97L359.13-20.97Q360-19.88 360.55-18.02L360.55-18.02L360.55-18.02Q361.09-16.16 361.09-13.31L361.09-13.31L361.09-13.31Q361.09-12.25 361-11.20L361-11.20L361-11.20Q360.91-10.16 360.66-9.16L360.66-9.16L360.66-9.16Q361.88-9.38 362.83-9.94L362.83-9.94L362.83-9.94Q363.78-10.50 364.52-11.30L364.52-11.30L364.52-11.30Q365.25-12.09 365.81-13.11L365.81-13.11L365.81-13.11Q366.38-14.13 366.84-15.28L366.84-15.28L368.06-14.97L368.06-14.97Q367.41-13.19 366.55-11.94L366.55-11.94L366.55-11.94Q365.69-10.69 364.70-9.84L364.70-9.84L364.70-9.84Q363.72-9 362.64-8.55L362.64-8.55L362.64-8.55Q361.56-8.09 360.41-7.94L360.41-7.94L360.41-7.94Q359.97-6.41 359.25-5.06L359.25-5.06L359.25-5.06Q358.53-3.72 357.50-2.72L357.50-2.72L357.50-2.72Q356.47-1.72 355.11-1.14L355.11-1.14L355.11-1.14Q353.75-0.56 352.06-0.56L352.06-0.56L352.06-0.56Q350.66-0.56 349.23-1.14L349.23-1.14L349.23-1.14Q347.81-1.72 346.67-2.92L346.67-2.92L346.67-2.92Q345.53-4.13 344.83-5.95L344.83-5.95L344.83-5.95Q344.13-7.78 344.13-10.31L344.13-10.31L344.13-10.31Q344.13-11.97 344.52-13.56L344.52-13.56L344.52-13.56Q344.91-15.16 345.61-16.58L345.61-16.58L345.61-16.58Q346.31-18 347.28-19.23L347.28-19.23L347.28-19.23Q348.25-20.47 349.38-21.38L349.38-21.38L349.84-20.59L349.84-20.59Q349.13-19.94 348.47-18.97L348.47-18.97L348.47-18.97Q347.81-18 347.28-16.83L347.28-16.83L347.28-16.83Q346.75-15.66 346.44-14.36L346.44-14.36L346.44-14.36Q346.13-13.06 346.13-11.78L346.13-11.78L346.13-11.78Q346.13-9.25 346.77-7.53L346.77-7.53L346.77-7.53Q347.41-5.81 348.41-4.77L348.41-4.77L348.41-4.77Q349.41-3.72 350.66-3.27L350.66-3.27L350.66-3.27Q351.91-2.81 353.09-2.81ZM354.88-21.75L354.88-21.75L354.88-21.75Q354.03-21.75 353.31-21.39L353.31-21.39L353.31-21.39Q352.59-21.03 352.06-20.41L352.06-20.41L352.06-20.41Q351.53-19.78 351.22-18.91L351.22-18.91L351.22-18.91Q350.91-18.03 350.91-16.97L350.91-16.97L350.91-16.97Q350.91-15.13 351.53-13.66L351.53-13.66L351.53-13.66Q352.16-12.19 353.23-11.16L353.23-11.16L353.23-11.16Q354.31-10.13 355.75-9.58L355.75-9.58L355.75-9.58Q357.19-9.03 358.84-9.03L358.84-9.03L359.44-9.03L359.44-9.03Q359.69-10 359.78-11.06L359.78-11.06L359.78-11.06Q359.88-12.13 359.88-13.38L359.88-13.38L359.88-13.38Q359.81-15.78 359.39-17.39L359.39-17.39L359.39-17.39Q358.97-19 358.31-19.97L358.31-19.97L358.31-19.97Q357.66-20.94 356.77-21.34L356.77-21.34L356.77-21.34Q355.88-21.75 354.88-21.75ZM378.81-7.22L378.81-7.22L378.81-7.22Q377.84-5.47 376.94-4.31L376.94-4.31L376.94-4.31Q376.03-3.16 375.14-2.47L375.14-2.47L375.14-2.47Q374.25-1.78 373.34-1.50L373.34-1.50L373.34-1.50Q372.44-1.22 371.47-1.22L371.47-1.22L371.47-1.22Q370.69-1.22 369.69-1.47L369.69-1.47L369.69-1.47Q368.69-1.72 367.80-2.52L367.80-2.52L367.80-2.52Q366.91-3.31 366.30-4.81L366.30-4.81L366.30-4.81Q365.69-6.31 365.69-8.84L365.69-8.84L365.69-8.84Q365.69-11.38 366.28-13.61L366.28-13.61L366.28-13.61Q366.88-15.84 367.59-17.53L367.59-17.53L367.59-17.53Q368.44-19.47 369.53-21.13L369.53-21.13L370.69-20.75L370.69-20.75Q370.66-20.72 370.48-20.19L370.48-20.19L370.48-20.19Q370.31-19.66 370.05-18.75L370.05-18.75L370.05-18.75Q369.78-17.84 369.48-16.66L369.48-16.66L369.48-16.66Q369.19-15.47 368.92-14.14L368.92-14.14L368.92-14.14Q368.66-12.81 368.48-11.44L368.48-11.44L368.48-11.44Q368.31-10.06 368.31-8.78L368.31-8.78L368.31-8.78Q368.31-5.84 369.36-4.14L369.36-4.14L369.36-4.14Q370.41-2.44 372.09-2.44L372.09-2.44L372.09-2.44Q373.97-2.44 375.72-4.61L375.72-4.61L375.72-4.61Q377.47-6.78 379.06-10.69L379.06-10.69L379.06-10.69Q379.34-12.50 379.83-14.06L379.83-14.06L379.83-14.06Q380.31-15.63 380.80-16.84L380.80-16.84L380.80-16.84Q381.28-18.06 381.69-18.88L381.69-18.88L381.69-18.88Q382.09-19.69 382.28-19.97L382.28-19.97L383.38-19.72L383.38-19.72Q382.88-17.38 382.52-15.52L382.52-15.52L382.52-15.52Q382.16-13.66 381.94-12.16L381.94-12.16L381.94-12.16Q381.72-10.66 381.61-9.48L381.61-9.48L381.61-9.48Q381.50-8.31 381.50-7.38L381.50-7.38L381.50-7.38Q381.50-5.50 382.09-4.38L382.09-4.38L382.09-4.38Q382.69-3.25 383.94-3.25L383.94-3.25L383.94-3.25Q384.78-3.25 385.56-3.88L385.56-3.88L385.56-3.88Q386.34-4.50 387.19-5.94L387.19-5.94L387.19-5.94Q388.03-7.38 388.97-9.66L388.97-9.66L388.97-9.66Q389.91-11.94 391.09-15.28L391.09-15.28L392.31-14.97L392.31-14.97Q391.78-13.66 391.25-12.16L391.25-12.16L391.25-12.16Q390.72-10.66 390.11-9.16L390.11-9.16L390.11-9.16Q389.50-7.66 388.83-6.28L388.83-6.28L388.83-6.28Q388.16-4.91 387.33-3.84L387.33-3.84L387.33-3.84Q386.50-2.78 385.53-2.16L385.53-2.16L385.53-2.16Q384.56-1.53 383.38-1.53L383.38-1.53L383.38-1.53Q382.25-1.53 381.41-1.97L381.41-1.97L381.41-1.97Q380.56-2.41 379.98-3.16L379.98-3.16L379.98-3.16Q379.41-3.91 379.11-4.95L379.11-4.95L379.11-4.95Q378.81-6 378.81-7.22ZM393.34-17.66L393.34-17.66L393.34-17.66Q393-16.75 392.67-15.88L392.67-15.88L392.67-15.88Q392.34-15 391.95-14.13L391.95-14.13L391.95-14.13Q391.56-13.25 391.03-12.41L391.03-12.41L391.03-12.41Q390.50-11.56 389.75-10.69L389.75-10.69L389.50-10.94L389.50-10.94Q390.31-12.91 390.94-14.97L390.94-14.97L390.94-14.97Q391.56-17.03 392.19-19.59L392.19-19.59L392.19-19.59Q392.03-20.03 391.91-20.34L391.91-20.34L391.91-20.34Q391.78-20.66 391.69-20.92L391.69-20.92L391.69-20.92Q391.59-21.19 391.53-21.48L391.53-21.48L391.53-21.48Q391.47-21.78 391.47-22.16L391.47-22.16L391.47-22.16Q391.47-22.66 391.61-23.27L391.61-23.27L391.61-23.27Q391.75-23.88 392.02-24.41L392.02-24.41L392.02-24.41Q392.28-24.94 392.63-25.30L392.63-25.30L392.63-25.30Q392.97-25.66 393.34-25.66L393.34-25.66L393.34-25.66Q393.78-25.66 394.05-25.45L394.05-25.45L394.05-25.45Q394.31-25.25 394.47-24.94L394.47-24.94L394.47-24.94Q394.63-24.63 394.69-24.28L394.69-24.28L394.69-24.28Q394.75-23.94 394.75-23.63L394.75-23.63L394.75-23.63Q394.75-23.16 394.64-22.55L394.64-22.55L394.64-22.55Q394.53-21.94 394.39-21.36L394.39-21.36L394.39-21.36Q394.25-20.78 394.14-20.34L394.14-20.34L394.14-20.34Q394.03-19.91 394.03-19.78L394.03-19.78L394.03-19.78Q394.28-18.94 394.89-18.06L394.89-18.06L394.89-18.06Q395.50-17.19 396.28-16.28L396.28-16.28L396.28-16.28Q397.06-15.38 397.92-14.39L397.92-14.39L397.92-14.39Q398.78-13.41 399.48-12.31L399.48-12.31L399.48-12.31Q400.19-11.22 400.64-9.98L400.64-9.98L400.64-9.98Q401.09-8.75 401.09-7.38L401.09-7.38L401.09-7.38Q401.09-5.41 400.52-4.19L400.52-4.19L400.52-4.19Q399.94-2.97 398.97-2.31L398.97-2.31L398.97-2.31Q400.38-2.88 401.61-4.31L401.61-4.31L401.61-4.31Q402.84-5.75 403.89-7.61L403.89-7.61L403.89-7.61Q404.94-9.47 405.83-11.50L405.83-11.50L405.83-11.50Q406.72-13.53 407.41-15.28L407.41-15.28L408.63-14.97L408.63-14.97Q407.56-12.25 406.38-9.66L406.38-9.66L406.38-9.66Q405.19-7.06 403.69-5.03L403.69-5.03L403.69-5.03Q402.19-3 400.30-1.75L400.30-1.75L400.30-1.75Q398.41-0.50 395.97-0.50L395.97-0.50L395.97-0.50Q395.31-0.50 394.64-0.61L394.64-0.61L394.64-0.61Q393.97-0.72 393.33-0.95L393.33-0.95L393.33-0.95Q392.69-1.19 392.13-1.59L392.13-1.59L392.13-1.59Q391.56-2 391.16-2.56L391.16-2.56L392.19-3.25L392.19-3.25Q392.47-2.81 393.06-2.44L393.06-2.44L393.06-2.44Q393.66-2.06 394.63-2.06L394.63-2.06L394.63-2.06Q395.56-2.06 396.27-2.45L396.27-2.45L396.27-2.45Q396.97-2.84 397.45-3.52L397.45-3.52L397.45-3.52Q397.94-4.19 398.17-5.09L398.17-5.09L398.17-5.09Q398.41-6 398.41-7.03L398.41-7.03L398.41-7.03Q398.41-9.16 397.80-10.69L397.80-10.69L397.80-10.69Q397.19-12.22 396.36-13.42L396.36-13.42L396.36-13.42Q395.53-14.63 394.67-15.63L394.67-15.63L394.67-15.63Q393.81-16.63 393.34-17.66ZM444.34-15.28L445.56-14.97L445.56-14.97Q444.28-11.50 443.23-9.16L443.23-9.16L443.23-9.16Q442.19-6.81 441.20-5.38L441.20-5.38L441.20-5.38Q440.22-3.94 439.25-3.31L439.25-3.31L439.25-3.31Q438.28-2.69 437.13-2.69L437.13-2.69L437.13-2.69Q435.72-2.69 434.72-3.67L434.72-3.67L434.72-3.67Q433.72-4.66 433.47-6.72L433.47-6.72L433.47-6.72Q432.47-4.56 430.88-3.20L430.88-3.20L430.88-3.20Q429.28-1.84 426.88-1.84L426.88-1.84L426.88-1.84Q425.59-1.84 424.42-2.31L424.42-2.31L424.42-2.31Q423.25-2.78 422.34-3.77L422.34-3.77L422.34-3.77Q421.44-4.75 420.89-6.25L420.89-6.25L420.89-6.25Q420.34-7.75 420.34-9.78L420.34-9.78L420.34-9.78Q420.34-11.84 420.86-13.66L420.86-13.66L420.86-13.66Q421.38-15.47 422.22-16.98L422.22-16.98L422.22-16.98Q423.06-18.50 424.17-19.69L424.17-19.69L424.17-19.69Q425.28-20.88 426.47-21.69L426.47-21.69L426.47-21.69Q427.66-22.50 428.84-22.94L428.84-22.94L428.84-22.94Q430.03-23.38 431.03-23.38L431.03-23.38L431.03-23.38Q431.91-23.38 432.72-23.16L432.72-23.16L432.72-23.16Q433.53-22.94 434.17-22.45L434.17-22.45L434.17-22.45Q434.81-21.97 435.20-21.16L435.20-21.16L435.20-21.16Q435.59-20.34 435.59-19.13L435.59-19.13L435.59-19.13Q435.59-17.69 435.05-16.63L435.05-16.63L435.05-16.63Q434.50-15.56 433.73-14.84L433.73-14.84L433.73-14.84Q432.97-14.13 432.17-13.69L432.17-13.69L432.17-13.69Q431.38-13.25 430.91-13.06L430.91-13.06L430.53-14.28L430.53-14.28Q430.63-14.28 431.23-14.53L431.23-14.53L431.23-14.53Q431.84-14.78 432.52-15.36L432.52-15.36L432.52-15.36Q433.19-15.94 433.75-16.84L433.75-16.84L433.75-16.84Q434.31-17.75 434.31-19.06L434.31-19.06L434.31-19.06Q434.31-20.56 433.47-21.36L433.47-21.36L433.47-21.36Q432.63-22.16 431.31-22.16L431.31-22.16L431.31-22.16Q430.31-22.16 428.97-21.44L428.97-21.44L428.97-21.44Q427.63-20.72 426.39-19.19L426.39-19.19L426.39-19.19Q425.16-17.66 424.30-15.31L424.30-15.31L424.30-15.31Q423.44-12.97 423.44-9.72L423.44-9.72L423.44-9.72Q423.44-6.50 424.58-4.81L424.58-4.81L424.58-4.81Q425.72-3.13 427.66-3.13L427.66-3.13L427.66-3.13Q428.63-3.13 429.52-3.67L429.52-3.67L429.52-3.67Q430.41-4.22 431.16-5.13L431.16-5.13L431.16-5.13Q431.91-6.03 432.50-7.23L432.50-7.23L432.50-7.23Q433.09-8.44 433.53-9.72L433.53-9.72L433.53-9.72Q433.53-10.72 433.77-12.08L433.77-12.08L433.77-12.08Q434-13.44 434.50-14.84L434.50-14.84L436.41-14.22L436.41-14.22Q436.25-13.81 436.09-13.16L436.09-13.16L436.09-13.16Q435.94-12.50 435.80-11.72L435.80-11.72L435.80-11.72Q435.66-10.94 435.56-10.11L435.56-10.11L435.56-10.11Q435.47-9.28 435.47-8.50L435.47-8.50L435.47-8.50Q435.47-6.06 435.95-5.14L435.95-5.14L435.95-5.14Q436.44-4.22 437.63-4.22L437.63-4.22L437.63-4.22Q438.31-4.22 438.98-4.72L438.98-4.72L438.98-4.72Q439.66-5.22 440.44-6.47L440.44-6.47L440.44-6.47Q441.22-7.72 442.16-9.86L442.16-9.86L442.16-9.86Q443.09-12 444.34-15.28L444.34-15.28ZM447.94-3.25L447.94-3.25L447.94-3.25Q445.97-3.25 444.67-4.84L444.67-4.84L444.67-4.84Q443.38-6.44 443.38-9.66L443.38-9.66L443.38-9.66Q443.38-11.78 444.23-15.08L444.23-15.08L444.23-15.08Q445.09-18.38 447.22-22.53L447.22-22.53L448.38-22.22L448.38-22.22Q448.19-21.41 447.77-20L447.77-20L447.77-20Q447.34-18.59 446.92-16.86L446.92-16.86L446.92-16.86Q446.50-15.13 446.19-13.23L446.19-13.23L446.19-13.23Q445.88-11.34 445.88-9.59L445.88-9.59L445.88-9.59Q445.88-8.13 446.09-7.20L446.09-7.20L446.09-7.20Q446.31-6.28 446.67-5.77L446.67-5.77L446.67-5.77Q447.03-5.25 447.52-5.06L447.52-5.06L447.52-5.06Q448-4.88 448.56-4.88L448.56-4.88L448.56-4.88Q449.47-4.88 450.28-5.44L450.28-5.44L450.28-5.44Q451.09-6 451.83-6.92L451.83-6.92L451.83-6.92Q452.56-7.84 453.20-8.98L453.20-8.98L453.20-8.98Q453.84-10.13 454.36-11.28L454.36-11.28L454.36-11.28Q454.88-12.44 455.28-13.48L455.28-13.48L455.28-13.48Q455.69-14.53 455.94-15.28L455.94-15.28L457.16-14.97L457.16-14.97Q456.81-14.03 456.36-12.80L456.36-12.80L456.36-12.80Q455.91-11.56 455.33-10.25L455.33-10.25L455.33-10.25Q454.75-8.94 454.03-7.69L454.03-7.69L454.03-7.69Q453.31-6.44 452.41-5.45L452.41-5.45L452.41-5.45Q451.50-4.47 450.39-3.86L450.39-3.86L450.39-3.86Q449.28-3.25 447.94-3.25ZM453-32.38L453-32.38L453-32.38Q453-31.28 452.16-30.69L452.16-30.69L452.16-30.69Q451.31-30.09 450.03-30.09L450.03-30.09L450.03-30.09Q449.38-30.09 448.80-30.30L448.80-30.30L448.80-30.30Q448.22-30.50 447.80-30.83L447.80-30.83L447.80-30.83Q447.38-31.16 447.14-31.61L447.14-31.61L447.14-31.61Q446.91-32.06 446.91-32.56L446.91-32.56L446.91-32.56Q446.91-33.63 447.73-34.28L447.73-34.28L447.73-34.28Q448.56-34.94 449.66-34.94L449.66-34.94L449.66-34.94Q450.44-34.94 451.06-34.70L451.06-34.70L451.06-34.70Q451.69-34.47 452.13-34.09L452.13-34.09L452.13-34.09Q452.56-33.72 452.78-33.27L452.78-33.27L452.78-33.27Q453-32.81 453-32.38ZM451.31-32.38L451.31-32.38L451.31-32.38Q451.31-32.69 451.05-32.95L451.05-32.95L451.05-32.95Q450.78-33.22 450.25-33.22L450.25-33.22L450.25-33.22Q449.28-33.22 449.28-32.50L449.28-32.50L449.28-32.50Q449.28-32.16 449.58-31.92L449.58-31.92L449.58-31.92Q449.88-31.69 450.38-31.69L450.38-31.69L450.38-31.69Q450.84-31.69 451.08-31.89L451.08-31.89L451.08-31.89Q451.31-32.09 451.31-32.38ZM457.16-14.97L455.94-15.28L455.94-15.28Q456.94-18.22 458.09-19.67L458.09-19.67L458.09-19.67Q459.25-21.13 460.81-21.13L460.81-21.13L460.81-21.13Q461.50-21.13 462.11-20.81L462.11-20.81L462.11-20.81Q462.72-20.50 463.19-19.80L463.19-19.80L463.19-19.80Q463.66-19.09 463.92-17.97L463.92-17.97L463.92-17.97Q464.19-16.84 464.19-15.22L464.19-15.22L464.19-15.22Q465.59-18.81 467.03-20.34L467.03-20.34L467.03-20.34Q468.47-21.88 470.16-21.88L470.16-21.88L470.16-21.88Q470.78-21.88 471.42-21.63L471.42-21.63L471.42-21.63Q472.06-21.38 472.58-20.73L472.58-20.73L472.58-20.73Q473.09-20.09 473.44-19L473.44-19L473.44-19Q473.78-17.91 473.81-16.25L473.81-16.25L473.81-16.25Q474.66-17.91 475.92-18.94L475.92-18.94L475.92-18.94Q477.19-19.97 478.72-19.97L478.72-19.97L478.72-19.97Q479.47-19.97 480.22-19.70L480.22-19.70L480.22-19.70Q480.97-19.44 481.55-18.81L481.55-18.81L481.55-18.81Q482.13-18.19 482.50-17.17L482.50-17.17L482.50-17.17Q482.88-16.16 482.88-14.66L482.88-14.66L482.88-14.66Q482.88-14.22 482.81-13.52L482.81-13.52L482.81-13.52Q482.75-12.81 482.66-11.97L482.66-11.97L482.66-11.97Q482.56-11.13 482.47-10.25L482.47-10.25L482.47-10.25Q482.38-9.38 482.28-8.61L482.28-8.61L482.28-8.61Q482.19-7.84 482.13-7.27L482.13-7.27L482.13-7.27Q482.06-6.69 482.06-6.47L482.06-6.47L482.06-6.47Q482.06-4.63 482.50-3.78L482.50-3.78L482.50-3.78Q482.94-2.94 484.09-2.94L484.09-2.94L484.09-2.94Q484.97-2.94 485.88-3.98L485.88-3.98L485.88-3.98Q486.78-5.03 487.72-6.75L487.72-6.75L487.72-6.75Q488.66-8.47 489.63-10.69L489.63-10.69L489.63-10.69Q490.59-12.91 491.59-15.28L491.59-15.28L492.81-14.97L492.81-14.97Q491.91-12.81 490.94-10.41L490.94-10.41L490.94-10.41Q489.97-8 488.83-5.97L488.83-5.97L488.83-5.97Q487.69-3.94 486.38-2.61L486.38-2.61L486.38-2.61Q485.06-1.28 483.47-1.28L483.47-1.28L483.47-1.28Q481.63-1.28 480.66-2.38L480.66-2.38L480.66-2.38Q479.69-3.47 479.69-6.03L479.69-6.03L479.69-6.03Q479.69-7.16 479.84-8.42L479.84-8.42L479.84-8.42Q480-9.69 480.20-10.95L480.20-10.95L480.20-10.95Q480.41-12.22 480.56-13.42L480.56-13.42L480.56-13.42Q480.72-14.63 480.72-15.63L480.72-15.63L480.72-15.63Q480.72-16.19 480.63-16.75L480.63-16.75L480.63-16.75Q480.53-17.31 480.30-17.77L480.30-17.77L480.30-17.77Q480.06-18.22 479.67-18.48L479.67-18.48L479.67-18.48Q479.28-18.75 478.66-18.75L478.66-18.75L478.66-18.75Q477.88-18.75 477.16-18L477.16-18L477.16-18Q476.44-17.25 475.78-16L475.78-16L475.78-16Q475.13-14.75 474.56-13.14L474.56-13.14L474.56-13.14Q474-11.53 473.56-9.83L473.56-9.83L473.56-9.83Q473.13-8.13 472.78-6.45L472.78-6.45L472.78-6.45Q472.44-4.78 472.25-3.41L472.25-3.41L470.03-3.78L470.03-3.78Q470.03-3.78 470.19-4.55L470.19-4.55L470.19-4.55Q470.34-5.31 470.55-6.52L470.55-6.52L470.55-6.52Q470.75-7.72 471-9.23L471-9.23L471-9.23Q471.25-10.75 471.45-12.28L471.45-12.28L471.45-12.28Q471.66-13.81 471.80-15.22L471.80-15.22L471.80-15.22Q471.94-16.63 471.94-17.59L471.94-17.59L471.94-17.59Q471.94-18.91 471.44-19.75L471.44-19.75L471.44-19.75Q470.94-20.59 469.97-20.59L469.97-20.59L469.97-20.59Q469.06-20.59 468.23-19.56L468.23-19.56L468.23-19.56Q467.41-18.53 466.69-16.86L466.69-16.86L466.69-16.86Q465.97-15.19 465.34-13.08L465.34-13.08L465.34-13.08Q464.72-10.97 464.19-8.83L464.19-8.83L464.19-8.83Q463.66-6.69 463.25-4.72L463.25-4.72L463.25-4.72Q462.84-2.75 462.53-1.34L462.53-1.34L460.44-1.84L460.44-1.84Q460.88-4 461.22-6.22L461.22-6.22L461.22-6.22Q461.53-8.13 461.78-10.41L461.78-10.41L461.78-10.41Q462.03-12.69 462.03-14.84L462.03-14.84L462.03-14.84Q462.03-16.22 461.97-17.14L461.97-17.14L461.97-17.14Q461.91-18.06 461.72-18.63L461.72-18.63L461.72-18.63Q461.53-19.19 461.20-19.42L461.20-19.42L461.20-19.42Q460.88-19.66 460.38-19.66L460.38-19.66L460.38-19.66Q459.59-19.66 458.78-18.53L458.78-18.53L458.78-18.53Q457.97-17.41 457.16-14.97L457.16-14.97ZM498.44-0.44L498.44-0.44L498.44-0.44Q496.84-0.44 495.38-1L495.38-1L495.38-1Q493.91-1.56 492.80-2.70L492.80-2.70L492.80-2.70Q491.69-3.84 491.03-5.56L491.03-5.56L491.03-5.56Q490.38-7.28 490.38-9.59L490.38-9.59L490.38-9.59Q490.38-12.41 491.19-14.61L491.19-14.61L491.19-14.61Q492-16.81 493.27-18.33L493.27-18.33L493.27-18.33Q494.53-19.84 496.09-20.64L496.09-20.64L496.09-20.64Q497.66-21.44 499.16-21.44L499.16-21.44L499.16-21.44Q501.09-21.44 502.23-20.16L502.23-20.16L502.23-20.16Q503.38-18.88 503.38-16.84L503.38-16.84L503.38-16.84Q503.38-15.09 502.72-13.67L502.72-13.67L502.72-13.67Q502.06-12.25 500.98-11.23L500.98-11.23L500.98-11.23Q499.91-10.22 498.52-9.66L498.52-9.66L498.52-9.66Q497.13-9.09 495.63-9.09L495.63-9.09L495.63-9.09Q494.91-9.09 494.27-9.17L494.27-9.17L494.27-9.17Q493.63-9.25 493.13-9.34L493.13-9.34L493.13-9.34Q493.31-7.41 493.88-6L493.88-6L493.88-6Q494.44-4.59 495.28-3.69L495.28-3.69L495.28-3.69Q496.13-2.78 497.17-2.34L497.17-2.34L497.17-2.34Q498.22-1.91 499.34-1.91L499.34-1.91L499.34-1.91Q500.75-1.91 501.94-2.59L501.94-2.59L501.94-2.59Q503.13-3.28 504.13-4.39L504.13-4.39L504.13-4.39Q505.13-5.50 505.95-6.94L505.95-6.94L505.95-6.94Q506.78-8.38 507.44-9.86L507.44-9.86L507.44-9.86Q508.09-11.34 508.61-12.77L508.61-12.77L508.61-12.77Q509.13-14.19 509.53-15.28L509.53-15.28L510.75-14.97L510.75-14.97Q510.34-13.94 509.80-12.47L509.80-12.47L509.80-12.47Q509.25-11 508.53-9.39L508.53-9.39L508.53-9.39Q507.81-7.78 506.84-6.17L506.84-6.17L506.84-6.17Q505.88-4.56 504.66-3.30L504.66-3.30L504.66-3.30Q503.44-2.03 501.89-1.23L501.89-1.23L501.89-1.23Q500.34-0.44 498.44-0.44ZM499.22-20.22L499.22-20.22L499.22-20.22Q498.06-20.22 496.95-19.48L496.95-19.48L496.95-19.48Q495.84-18.75 494.97-17.47L494.97-17.47L494.97-17.47Q494.09-16.19 493.55-14.44L493.55-14.44L493.55-14.44Q493-12.69 493-10.69L493-10.69L493-10.69Q493.41-10.53 494.14-10.42L494.14-10.42L494.14-10.42Q494.88-10.31 495.94-10.31L495.94-10.31L495.94-10.31Q497.06-10.31 498.17-10.80L498.17-10.80L498.17-10.80Q499.28-11.28 500.17-12.14L500.17-12.14L500.17-12.14Q501.06-13 501.61-14.19L501.61-14.19L501.61-14.19Q502.16-15.38 502.16-16.78L502.16-16.78L502.16-16.78Q502.16-17.47 501.97-18.09L501.97-18.09L501.97-18.09Q501.78-18.72 501.41-19.19L501.41-19.19L501.41-19.19Q501.03-19.66 500.48-19.94L500.48-19.94L500.48-19.94Q499.94-20.22 499.22-20.22Z" fill="#e49c49"></path></g></g><style>text {
  font-size: 64px;
  font-family: Arial Black;
  dominant-baseline: central;
  text-anchor: middle;
}</style></svg>
